# xmcd
#
# Track frame offsets:
#	150
#	16142
#	34472
#	52345
#	66983
#	83867
#	101560
#	118895
#	133664
#	152145
#	167657
#	187095
#	203566
#	221475
#	237205
#	251053
#	270685
#	297036
#
# Disc length: 4216 seconds
#
# Revision: 0
# Processed by: cddbd v1.5.2PL0 Copyright (c) Steve Scherf et al.
# Submitted via: EasyCDDAExtractor 11.5.0.1
#
DISCID=11107612
DTITLE=Various Artist - NCT 047
DYEAR=2003
DGENRE=Country
TTITLE0=Lonestar - My Front Porch Looking In
TTITLE1=Sara Evans - Backseat Of A Greyhound Bus
TTITLE2=Garth Brooks - Why Ain't I Running
TTITLE3=Brian McComas - 999% Sure (I've Never Been Here Before)
TTITLE4=Kellie Coffey - Whatever It Takes
TTITLE5=Terri Clark - Three Mississippi
TTITLE6=Mark Wills - When You Think Of Me
TTITLE7=Tanya Tucker - Old Weakness (Coming On Strong)
TTITLE8=Brett James - After All
TTITLE9=Trick Pony - A Boy Like You
TTITLE10=Marcel - Tennessee
TTITLE11=Chad Brock - That Was Us
TTITLE12=Darryl Worley - Have You Forgotten?
TTITLE13=Mark Chesnutt - I'm In Love With A Married Woman
TTITLE14=The Derailers - Genuine
TTITLE15=Emerson Drive - Only God (Could Stop Me From Loving You)
TTITLE16=Bering Strait - Bearing Straight
TTITLE17=Kid Rock ft. Sheryl Crow - Picture
EXTD=
EXTT0=
EXTT1=
EXTT2=
EXTT3=
EXTT4=
EXTT5=
EXTT6=
EXTT7=
EXTT8=
EXTT9=
EXTT10=
EXTT11=
EXTT12=
EXTT13=
EXTT14=
EXTT15=
EXTT16=
EXTT17=
PLAYORDER=
